<svg xmlns="http://www.w3.org/2000/svg" width="612" height="612" fill="#e2e2e2"><path d="M587.572 186.877c-32.265-75.217-87.06-130.012-162.285-162.285C387.41 8.345 347.992.164 306.504.164c-41.497 0-81.215 8.259-119.127 24.428-75.853 32.351-130.962 86.939-163.285 162.285C7.895 224.632 0 264.172 0 305.668c0 41.488 7.895 81.364 24.092 119.119 32.323 75.347 87.432 130.27 163.285 162.621 37.912 16.168 77.63 24.428 119.127 24.428 41.488 0 80.906-8.181 118.783-24.428 75.225-32.273 130.02-87.403 162.285-162.621C603.819 386.91 612 347.156 612 305.668c0-41.496-8.181-80.914-24.428-118.791zm-34.129 223.519c-14.198 33.064-33.13 61.904-57.215 85.996-23.764 23.757-52.539 42.831-85.661 57.215-33.13 14.392-67.594 21.415-104.063 21.415-48.521 0-93.735-11.971-135.188-36.135-41.196-24.021-74.019-56.843-98.04-98.039-24.164-41.453-36.135-86.668-36.135-135.181 0-48.52 12.043-93.356 36.135-134.517 24.092-41.16 56.844-74.019 98.04-98.04 41.453-24.164 86.668-36.142 135.188-36.142 48.52 0 93.355 12.05 134.509 36.142 41.16 24.092 73.826 56.958 97.711 98.04 23.964 41.231 36.135 85.997 36.135 134.517-.001 36.472-7.168 71.543-21.416 104.729z"/><path d="M219.171 307.674l149.565-153.591c6.603-6.774 7.031-18.067-.664-25.762-6.696-6.689-18.503-7.117-26.105.671L179.682 295.289c-6.61 6.774-7.024 18.411.671 26.106l161.614 161.614c3.684 3.683 8.031 5.688 13.057 5.688 5.347 0 10.036-2.006 13.713-5.688 6.695-6.696 7.217-18.554 0-25.763L219.171 307.674z"/></svg>