<svg height="512" viewBox="0 0 74 74" width="512" xmlns="http://www.w3.org/2000/svg" fill="#e2e2e2"><g id="Icons"><path d="m15 70h-12a1 1 0 0 1 -1-1v-24a1 1 0 0 1 1-1h12a1 1 0 0 1 1 1v24a1 1 0 0 1 -1 1zm-11-2h10v-22h-10z"/><path d="m38.222 72a19.938 19.938 0 0 1 -4.615-.542l-18.838-4.485.463-1.945 18.838 4.485a18 18 0 0 0 9.3-.269l25.009-7.5a2.27 2.27 0 0 0 -.85-4.436l-19.443 1.692-.172-2 19.446-1.687a4.27 4.27 0 0 1 1.6 8.344l-25.009 7.5a19.914 19.914 0 0 1 -5.729.843z"/><path d="m48 59h-7v-2h7a3 3 0 0 0 0-6h-3c-3.286 0-4.78-.676-8.391-2.309-1.087-.492-2.384-1.078-4-1.772-6.508-2.79-17.087 1.943-17.192 1.992l-.827-1.821c.465-.211 11.487-5.146 18.808-2.009 1.634.7 2.943 1.292 4.04 1.788 3.52 1.594 4.707 2.131 7.562 2.131h3a5 5 0 0 1 0 10z"/><path d="m54 38a18 18 0 1 1 18-18 18.02 18.02 0 0 1 -18 18zm0-34a16 16 0 1 0 16 16 16.018 16.018 0 0 0 -16-16z"/><path d="m54 29a5.006 5.006 0 0 1 -5-5h2a3 3 0 0 0 6 0c0-1.037-.368-2.318-3.241-3.029-3.024-.75-4.759-2.561-4.759-4.971a5 5 0 0 1 10 0h-2a3 3 0 0 0 -6 0c0 1.937 2.03 2.729 3.241 3.029 3.159.783 4.759 2.455 4.759 4.971a5.006 5.006 0 0 1 -5 5z"/><path d="m53 9h2v3h-2z"/><path d="m53 28h2v3h-2z"/></g></svg>