<svg height="512" viewBox="0 0 74 74" width="512" xmlns="http://www.w3.org/2000/svg" fill="#e2e2e2"><path d="M15 70H3a1 1 0 01-1-1V45a1 1 0 011-1h12a1 1 0 011 1v24a1 1 0 01-1 1zM4 68h10V46H4z"/><path d="M38.222 72a19.938 19.938 0 01-4.615-.542l-18.838-4.485.463-1.945 18.838 4.485a18 18 0 009.3-.269l25.009-7.5a2.27 2.27 0 00-.85-4.436L48.086 59l-.172-2 19.446-1.687a4.27 4.27 0 011.6 8.344l-25.009 7.5a19.914 19.914 0 01-5.729.843z"/><path d="M48 59h-7v-2h7a3 3 0 000-6h-3c-3.286 0-4.78-.676-8.391-2.309a213.702 213.702 0 00-4-1.772c-6.508-2.79-17.087 1.943-17.192 1.992l-.827-1.821c.465-.211 11.487-5.146 18.808-2.009 1.634.7 2.943 1.292 4.04 1.788C40.958 48.463 42.145 49 45 49h3a5 5 0 010 10zm6-21a18 18 0 1118-18 18.02 18.02 0 01-18 18zm0-34a16 16 0 1016 16A16.018 16.018 0 0054 4z"/><path d="M54 29a5.006 5.006 0 01-5-5h2a3 3 0 006 0c0-1.037-.368-2.318-3.241-3.029C50.735 20.221 49 18.41 49 16a5 5 0 0110 0h-2a3 3 0 00-6 0c0 1.937 2.03 2.729 3.241 3.029C57.4 19.812 59 21.484 59 24a5.006 5.006 0 01-5 5z"/><path d="M53 9h2v3h-2zm0 19h2v3h-2z"/></svg>